<svg width="80" height="80" viewBox="0 0 80 80" fill="none" xmlns="http://www.w3.org/2000/svg">
<rect width="80" height="80" fill="white"/>
<path d="M13.7776 68.8027L8 4H71.486L65.7022 68.7924L39.7042 76L13.7776 68.8027Z" fill="#264DE4"/>
<path d="M60.7507 64.6667L65.6934 9.29846H39.743V70.4909L60.7507 64.6667Z" fill="#2965F1"/>
<path d="M21.2451 33.333L21.9574 41.2807H39.743V33.333H21.2451ZM20.5363 25.1943H39.743V17.2465H19.8137L20.5363 25.1943ZM39.743 53.9742L39.7081 53.9835L30.8566 51.5934L30.2908 45.2546H22.3123L23.426 57.7338L39.7064 62.2535L39.743 62.2432V53.9742Z" fill="#EBEBEB"/>
<path d="M39.7156 33.333V41.2807H49.5024L48.5799 51.5884L39.7156 53.9808V62.2496L56.009 57.7338L56.1285 56.391L57.996 35.4671L58.19 33.333L59.6248 17.2465H39.7156V25.1943H50.9148L50.1914 33.333H39.7156Z" fill="white"/>
</svg>
