<svg width="80" height="80" viewBox="0 0 80 80" fill="none" xmlns="http://www.w3.org/2000/svg">
<rect width="80" height="80" fill="none"/>
<path d="M74.6419 36.7921L43.2063 5.3581C41.3963 3.5473 38.4603 3.5473 36.6487 5.3581L30.1217 11.8867L38.4015 20.1666C40.326 19.5162 42.5325 19.9527 44.0659 21.4869C45.6087 23.0305 46.0412 25.2558 45.3744 27.1873L53.3558 35.1678C55.2872 34.5018 57.5141 34.9327 59.0561 36.4771C61.2109 38.6319 61.2109 42.1234 59.0561 44.2798C56.8998 46.4354 53.4083 46.4354 51.2511 44.2798C49.6307 42.6578 49.2295 40.2758 50.0515 38.2793L42.6077 30.8363V50.4229C43.1327 50.683 43.6287 51.0294 44.0659 51.4666C46.2207 53.6214 46.2207 57.1129 44.0659 59.2701C41.9111 61.4241 38.4172 61.4241 36.264 59.2701C34.1092 57.1121 34.1092 53.6206 36.264 51.4666C36.7968 50.9346 37.4135 50.5318 38.0717 50.2623V30.4931C37.4135 30.2235 36.7984 29.8247 36.264 29.2888C34.6318 27.6574 34.2393 25.2613 35.0761 23.2569L26.9138 15.093L5.3581 36.6464C3.5473 38.4587 3.5473 41.3947 5.3581 43.2055L36.7952 74.6403C38.6053 76.4511 41.5405 76.4511 43.3528 74.6403L74.6419 43.3513C76.4527 41.5405 76.4527 38.6029 74.6419 36.7921Z" fill="#F05133"/>
</svg>
