<svg width="80" height="80" viewBox="0 0 80 80" fill="none" xmlns="http://www.w3.org/2000/svg">
<rect width="80" height="80" fill="none"/>
<path d="M13.7656 68.6875L8 4H71.4219L65.6562 68.6875L39.6406 76" fill="#E34F26"/>
<path d="M39.7812 70.3749L60.7344 64.6092L65.6562 9.203H39.7812" fill="#EF652A"/>
<path d="M39.7812 33.2501H29.2344L28.5312 25.0939H39.7812V17.2189H39.6406H19.8125L19.9531 19.3282L21.9219 41.2657H39.7812V33.2501ZM39.7812 53.922H39.6406L30.7812 51.5314L30.2188 45.2032H26H22.3438L23.3281 57.7189L39.6406 62.2189H39.7812V53.922Z" fill="#EBEBEB"/>
<path d="M39.6406 33.2501V41.2657H49.4844L48.5 51.5314L39.6406 53.922V62.2189L55.9531 57.7189L56.0938 56.3126L57.9219 35.3595L58.2031 33.2501H55.9531H39.6406ZM39.6406 17.2189V22.1407V25.0939H58.9062L59.0469 23.4064L59.4688 19.3282L59.6094 17.2189H39.6406Z" fill="white"/>
</svg>
