<svg width="80" height="80" viewBox="0 0 80 80" fill="none" xmlns="http://www.w3.org/2000/svg">
<rect width="80" height="80" fill="white"/>
<path d="M68.1121 39.4498C68.1121 35.7485 65.1116 32.7481 61.4104 32.7481C61.1722 32.7481 60.9375 32.7608 60.706 32.785L69.9107 5.63672H30.7935L39.9853 32.7616C39.8506 32.7535 39.7151 32.7481 39.5781 32.7481C35.8769 32.7481 32.8764 35.7485 32.8764 39.4498C32.8764 42.4416 34.8371 44.9745 37.5434 45.8362C36.114 48.3121 34.3155 50.5419 32.2736 52.4682C29.4971 55.0876 26.3194 57.0737 22.8827 58.2976C18.7908 56.1957 16.8584 51.5206 18.6021 47.4218C18.7989 46.959 18.9999 46.4897 19.1921 46.0226C22.1564 45.3307 24.3654 42.6731 24.3654 39.4979C24.3654 35.7967 21.3649 32.7962 17.6637 32.7962C13.9621 32.7962 10.9617 35.7967 10.9617 39.4979C10.9617 41.7677 12.0911 43.7722 13.8172 44.9846C12.1584 48.7615 9.72021 52.7139 8.96056 57.2948C8.05014 62.785 8.95775 68.6128 13.7059 71.9038C24.7644 79.5681 36.7682 67.1525 49.4247 64.0314C54.0114 62.9002 59.0463 63.0825 63.0876 60.7419C66.1224 58.9842 68.123 56.0714 68.6909 52.801C69.2517 49.5704 68.434 46.3537 66.5535 43.7455C67.5261 42.5822 68.1121 41.0847 68.1121 39.4498ZM46.2793 39.4735C46.2793 39.4656 46.2801 39.4577 46.2801 39.4498C46.2801 37.0193 44.9859 34.8908 43.0494 33.7161L50.3654 18.9225L57.6941 33.8729C55.8944 35.0744 54.7084 37.1235 54.7084 39.4498C54.7084 39.4987 54.7112 39.5468 54.7122 39.5955L46.2793 39.4735Z" fill="#C63D14"/>
<path d="M69.7486 39.4498C69.7486 35.379 66.8157 31.9823 62.9522 31.2568L72.1936 4H28.5103L37.7658 31.3121C34.0368 32.142 31.2396 35.4745 31.2396 39.4498C31.2396 42.4352 32.8172 45.0575 35.1817 46.531C34.0444 48.2252 32.6957 49.8197 31.1502 51.2776C28.6993 53.5899 25.9686 55.3436 23.0247 56.4972C20.0596 54.6346 18.8062 51.1223 20.108 48.0622L20.2099 47.8229C20.2735 47.6731 20.3375 47.5229 20.4011 47.3726C23.6577 46.2371 26.0019 43.1371 26.0019 39.4979C26.0019 34.9 22.2612 31.1595 17.6632 31.1595C13.0653 31.1595 9.32482 34.9 9.32482 39.4979C9.32482 41.8187 10.2785 43.9202 11.8136 45.4334C11.5353 46.0267 11.2427 46.6298 10.9419 47.2476C9.53823 50.1306 7.94735 53.3984 7.34559 57.0271C6.15045 64.2338 8.078 69.9948 12.7732 73.2489C15.6224 75.2235 18.5156 76.0003 21.4272 76C26.9098 75.9997 32.4556 73.2456 37.8799 70.5512C41.7867 68.611 45.8261 66.6045 49.8164 65.6205C51.3011 65.2543 52.8288 65.034 54.4462 64.8007C57.6534 64.338 60.9701 63.8597 63.9079 62.1583C67.313 60.186 69.6442 56.8774 70.3033 53.0811C70.8691 49.8222 70.1879 46.5585 68.527 43.7903C69.3014 42.5251 69.7486 41.0389 69.7486 39.4498ZM66.4752 39.4498C66.4752 42.2427 64.2031 44.515 61.41 44.515C58.6173 44.515 56.345 42.2427 56.345 39.4498C56.345 36.6569 58.6173 34.3848 61.41 34.3848C64.2031 34.3848 66.4752 36.6569 66.4752 39.4498ZM67.6273 7.27343L59.4666 31.3424C59.1129 31.4272 58.7681 31.5341 58.4332 31.6627L50.3716 15.2171L42.2866 31.5654C41.9372 31.445 41.5776 31.3459 41.2088 31.2726L33.0762 7.27343H67.6273ZM39.578 34.3848C42.3709 34.3848 44.643 36.6569 44.643 39.4498C44.643 42.2427 42.3709 44.515 39.578 44.515C36.7854 44.515 34.513 42.2427 34.513 39.4498C34.513 36.6569 36.7854 34.3848 39.578 34.3848ZM17.6632 34.4329C20.4564 34.4329 22.7285 36.705 22.7285 39.4979C22.7285 42.2908 20.4564 44.5632 17.6632 44.5632C14.8706 44.5632 12.5983 42.2908 12.5983 39.4979C12.5983 36.705 14.8706 34.4329 17.6632 34.4329ZM67.078 52.5211C66.5852 55.3601 64.8316 57.8403 62.2672 59.3255C59.8766 60.7101 57.0119 61.1234 53.9789 61.5606C52.3542 61.7949 50.6739 62.0374 49.0326 62.4423C44.6926 63.5124 40.4889 65.6003 36.4237 67.6196C28.2885 71.6603 21.2626 75.1497 14.6381 70.5584C9.78551 67.1953 10.0096 60.9726 10.575 57.5627C11.0988 54.4036 12.5152 51.4941 13.8851 48.6803C14.1222 48.1934 14.3524 47.7164 14.5783 47.2425C15.2577 47.5142 15.9802 47.6993 16.7332 47.7834C15.3389 52.3854 17.5318 57.389 22.1344 59.7535L22.7641 60.0772L23.4314 59.8396C27.07 58.5439 30.4226 56.4643 33.3966 53.6587C35.319 51.8453 36.971 49.8388 38.3294 47.6948C38.7368 47.7561 39.1537 47.7885 39.578 47.7885C44.1759 47.7885 47.9167 44.048 47.9167 39.4498C47.9167 36.977 46.8336 34.7533 45.1182 33.2248L50.3586 22.6278L55.6523 33.4268C54.064 34.9461 53.0715 37.0835 53.0715 39.4498C53.0715 44.048 56.812 47.7885 61.41 47.7885C63.1765 47.7885 64.8153 47.2348 66.165 46.2941C67.1022 48.2125 67.4513 50.371 67.078 52.5211Z" fill="white"/>
</svg>
