<svg width="80" height="80" viewBox="0 0 80 80" fill="none" xmlns="http://www.w3.org/2000/svg">
<rect width="80" height="80" fill="none"/>
<rect width="35" height="50" x="30" y="10" fill="white"/>
<path d="M8 4.15676C15.0805 3.85849 22.1752 4.24199 29.2628 4.12126C37.0818 3.87269 44.8938 4.07865 52.72 4.10705C58.9269 4.12126 65.1339 4.07864 71.3409 4.12836C69.3879 25.6681 67.4207 47.2078 65.6097 68.7618C57.2935 71.1267 48.9702 73.456 40.654 75.8067C39.5888 76.247 38.4951 75.8352 37.4724 75.5582C29.5681 73.2856 21.6638 71.0343 13.7453 68.847C11.6858 47.3001 9.74704 25.732 8 4.15676ZM39.8018 9.77428C39.5106 20.3986 39.7592 31.0228 39.674 41.6471C39.7521 51.3624 39.532 61.0847 39.7876 70.8C46.7758 69.1524 53.6716 67.1283 60.5674 65.1327C62.3003 46.6894 63.9905 28.246 65.4393 9.78138C56.8958 9.69616 48.3453 9.79559 39.8018 9.77428ZM30.9104 51.2629C26.8055 50.1409 22.7504 48.8483 18.5888 47.9606C18.468 50.432 18.5107 52.9035 18.7947 55.3607C24.8881 56.845 30.8536 58.7979 36.954 60.2538C36.9966 46.1852 36.9327 32.1094 36.9824 18.0408C34.9939 17.9911 33.0054 17.9626 31.0169 17.92C30.7896 29.0272 31.0027 40.1486 30.9104 51.2629Z" fill="#D6BA32"/>
<path d="M39.8019 9.77436C48.3453 9.79566 56.8959 9.69624 65.4393 9.78146C63.9906 28.2461 62.3003 46.6895 60.5675 65.1328C53.6717 67.1284 46.7758 69.1524 39.7877 70.8C39.532 61.0848 39.7522 51.3624 39.6741 41.6472C39.7593 31.0229 39.5107 20.3986 39.8019 9.77436ZM42.1952 18.0337C42.2236 27.1808 42.2307 36.3351 42.1952 45.4822C46.371 44.8075 50.5327 44.0334 54.6943 43.2735C54.6304 45.404 54.5452 47.5346 54.4529 49.6651C50.3978 50.7446 46.3497 51.8596 42.2733 52.8609C42.2094 55.3181 42.2023 57.7754 42.2236 60.2397C47.3582 59.0892 52.4147 57.6404 57.5137 56.355C58.1529 56.0567 59.3815 56.0922 59.3247 55.0909C59.9426 48.5146 60.326 41.91 60.9226 35.3195C56.697 35.6675 52.5141 36.3777 48.2885 36.6688C48.253 32.9333 48.2459 29.1978 48.3027 25.4622C52.7484 25.4622 57.1871 25.4622 61.6328 25.4693C61.9169 22.9766 62.1654 20.4768 62.3572 17.9769C55.6389 18.0053 48.9135 17.913 42.1952 18.0337Z" fill="#FFDA3E"/>
<path d="M30.9104 51.263C31.0027 40.1487 30.7897 29.0272 31.0169 17.92C33.0054 17.9627 34.9939 17.9911 36.9825 18.0408C36.9327 32.1094 36.9967 46.1852 36.9541 60.2538C30.8536 58.798 24.8881 56.845 18.7948 55.3607C18.5107 52.9035 18.4681 50.432 18.5888 47.9606C22.7505 48.8483 26.8056 50.1409 30.9104 51.263Z" fill="#EBEBEB"/>
</svg>
