<svg width="80" height="80" viewBox="0 0 80 80" fill="none" xmlns="http://www.w3.org/2000/svg">
<rect width="80" height="80" fill="none"/>
<path d="M37.6373 4.01938C37.4825 4.03345 36.9899 4.08271 36.5465 4.11789C26.3216 5.03975 16.7442 10.5568 10.6782 19.0365C7.30039 23.7514 5.14001 29.0996 4.32371 34.7644C4.03519 36.7418 4 37.3259 4 40.007C4 42.6882 4.03519 43.2723 4.32371 45.2497C6.28002 58.7679 15.8997 70.1258 28.9465 74.334C31.2828 75.0869 33.7458 75.6006 36.5465 75.9103C37.6373 76.0299 42.3521 76.0299 43.4429 75.9103C48.2774 75.3755 52.3729 74.1792 56.4122 72.1173C57.0315 71.8006 57.1511 71.7162 57.0667 71.6458C57.0104 71.6036 54.3715 68.0639 51.2048 63.7854L45.4485 56.0094L38.2354 45.3341C34.2665 39.4652 31.0013 34.6659 30.9732 34.6659C30.945 34.6589 30.9169 39.4019 30.9028 45.1934C30.8817 55.3338 30.8746 55.742 30.748 55.9812C30.565 56.3261 30.4243 56.4668 30.1287 56.6216C29.9035 56.7342 29.7065 56.7553 28.6439 56.7553H27.4265L27.1028 56.5512C26.8916 56.4175 26.7368 56.2416 26.6313 56.0375L26.4835 55.7209L26.4976 41.6115L26.5187 27.4951L26.7368 27.2207C26.8494 27.0729 27.0887 26.8829 27.2576 26.7914C27.5461 26.6507 27.6587 26.6366 28.8761 26.6366C30.3117 26.6366 30.5509 26.6929 30.9239 27.101C31.0295 27.2136 34.935 33.0966 39.6077 40.183C44.2803 47.2693 50.67 56.9453 53.8085 61.6954L59.5086 70.3299L59.7971 70.1399C62.3515 68.4791 65.0538 66.1147 67.1931 63.6517C71.7461 58.4231 74.6805 52.0475 75.6657 45.2497C75.9542 43.2723 75.9894 42.6882 75.9894 40.007C75.9894 37.3259 75.9542 36.7418 75.6657 34.7644C73.7094 21.2462 64.0897 9.88831 51.0429 5.68013C48.7418 4.9342 46.2929 4.42049 43.5484 4.11086C42.8729 4.04049 38.2214 3.96308 37.6373 4.01938ZM52.373 25.7921C52.7107 25.961 52.9852 26.2847 53.0837 26.6225C53.14 26.8055 53.1541 30.7181 53.14 39.5356L53.1189 52.1882L50.8881 48.7682L48.6503 45.3482V36.1507C48.6503 30.2044 48.6785 26.8618 48.7207 26.6999C48.8333 26.3058 49.0796 25.9962 49.4174 25.8132C49.7059 25.6655 49.8115 25.6514 50.9163 25.6514C51.9578 25.6514 52.1407 25.6655 52.373 25.7921Z" fill="black"/>
<path d="M59.1568 70.4847C58.9105 70.6395 58.8331 70.7451 59.0512 70.6254C59.206 70.534 59.4594 70.344 59.4171 70.3369C59.396 70.3369 59.2764 70.4073 59.1568 70.4847ZM58.6712 70.8014C58.5445 70.8999 58.5445 70.9069 58.6993 70.8295C58.7838 70.7873 58.8542 70.738 58.8542 70.724C58.8542 70.6677 58.819 70.6817 58.6712 70.8014ZM58.3193 71.0125C58.1927 71.111 58.1927 71.118 58.3475 71.0406C58.4319 70.9984 58.5023 70.9491 58.5023 70.9351C58.5023 70.8788 58.4671 70.8928 58.3193 71.0125ZM57.9675 71.2236C57.8408 71.3221 57.8408 71.3291 57.9956 71.2517C58.0801 71.2095 58.1505 71.1603 58.1505 71.1462C58.1505 71.0899 58.1153 71.104 57.9675 71.2236ZM57.4327 71.5051C57.1653 71.6458 57.1793 71.7021 57.4467 71.5684C57.5664 71.5051 57.6579 71.4417 57.6579 71.4277C57.6579 71.3784 57.6508 71.3854 57.4327 71.5051Z" fill="black"/>
</svg>
