<svg width="80" height="80" viewBox="0 0 80 80" fill="none" xmlns="http://www.w3.org/2000/svg">
<rect width="80" height="80" fill="none"/>
<path d="M39.9486 76C38.9564 76 38.0303 75.7354 37.1704 75.2724L28.373 70.0469C27.0501 69.3192 27.7115 69.0547 28.1084 68.9224C29.8944 68.3271 30.2251 68.1948 32.0772 67.1364C32.2756 67.0041 32.5402 67.0703 32.7386 67.2026L39.4855 71.2375C39.7501 71.3698 40.0808 71.3698 40.2793 71.2375L66.6716 55.9577C66.9361 55.8254 67.0684 55.5609 67.0684 55.2301V24.7368C67.0684 24.4061 66.9361 24.1415 66.6716 24.0092L40.2793 8.79559C40.0147 8.6633 39.684 8.6633 39.4855 8.79559L13.0932 24.0092C12.8287 24.1415 12.6964 24.4722 12.6964 24.7368V55.2301C12.6964 55.4947 12.8287 55.8254 13.0932 55.9577L20.3032 60.1249C24.2058 62.1093 26.6532 59.7942 26.6532 57.4791V27.3826C26.6532 26.9858 26.9839 26.5889 27.4469 26.5889H30.8204C31.2173 26.5889 31.6141 26.9196 31.6141 27.3826V57.4791C31.6141 62.7046 28.7699 65.7474 23.8089 65.7474C22.2876 65.7474 21.0969 65.7474 17.7235 64.0937L10.7781 60.1249C9.05834 59.1328 8 57.2807 8 55.2963V24.8029C8 22.8186 9.05834 20.9665 10.7781 19.9743L37.1704 4.69453C38.8241 3.76849 41.073 3.76849 42.7267 4.69453L69.119 19.9743C70.8388 20.9665 71.8971 22.8186 71.8971 24.8029V55.2963C71.8971 57.2807 70.8388 59.1328 69.119 60.1249L42.7267 75.4047C41.8668 75.8016 40.8746 76 39.9486 76ZM48.0845 55.0317C36.509 55.0317 34.1277 49.74 34.1277 45.2421C34.1277 44.8452 34.4584 44.4483 34.9215 44.4483H38.361C38.7579 44.4483 39.0887 44.7129 39.0887 45.1098C39.6178 48.6155 41.1392 50.3353 48.1507 50.3353C53.7069 50.3353 56.0882 49.0785 56.0882 46.102C56.0882 44.3822 55.4267 43.1254 46.7616 42.2655C39.5517 41.5379 35.0537 39.9504 35.0537 34.1957C35.0537 28.8379 39.5517 25.6628 47.0923 25.6628C55.559 25.6628 59.7262 28.5733 60.2554 34.9233C60.2554 35.1217 60.1893 35.3202 60.057 35.5186C59.9247 35.6509 59.7262 35.7832 59.5278 35.7832H56.0882C55.7575 35.7832 55.4267 35.5186 55.3606 35.1879C54.5668 31.5498 52.5163 30.3592 47.0923 30.3592C41.0069 30.3592 40.2793 32.4759 40.2793 34.0634C40.2793 35.9816 41.1392 36.5769 49.3413 37.6353C57.4773 38.6936 61.3137 40.215 61.3137 45.9035C61.2476 51.7244 56.4851 55.0317 48.0845 55.0317Z" fill="#539E43"/>
</svg>
