<svg width="80" height="80" viewBox="0 0 80 80" fill="none" xmlns="http://www.w3.org/2000/svg">
<rect width="80" height="80" fill="none"/>
<path d="M39.633 45.9955C42.9443 45.9955 45.6285 43.3112 45.6285 40C45.6285 36.6888 42.9443 34.0045 39.633 34.0045C36.3218 34.0045 33.6376 36.6888 33.6376 40C33.6376 43.3112 36.3218 45.9955 39.633 45.9955Z" fill="#61DAFB"/>
<path fill-rule="evenodd" clip-rule="evenodd" d="M10.9703 36.3041C9.52316 37.6104 8.92462 38.8618 8.92462 39.9999C8.92462 41.1379 9.52316 42.3893 10.9703 43.6957C12.4173 45.0019 14.5933 46.2453 17.4065 47.3194C23.023 49.4639 30.8809 50.821 39.6331 50.821C48.3854 50.821 56.2432 49.4639 61.8597 47.3194C64.673 46.2453 66.8489 45.0019 68.2959 43.6957C69.7431 42.3893 70.3416 41.1379 70.3416 39.9999C70.3416 38.8618 69.7431 37.6104 68.2959 36.3041C66.8489 34.9978 64.673 33.7545 61.8597 32.6803C56.2432 30.5358 48.3854 29.1788 39.6331 29.1788C30.8809 29.1788 23.023 30.5358 17.4065 32.6803C14.5933 33.7545 12.4173 34.9978 10.9703 36.3041ZM16.3633 29.9481C22.3904 27.6468 30.6179 26.2542 39.6331 26.2542C48.6484 26.2542 56.8759 27.6468 62.9029 29.9481C65.9114 31.0968 68.4468 32.5003 70.2557 34.1332C72.0644 35.7659 73.2663 37.746 73.2663 39.9999C73.2663 42.2538 72.0644 44.2338 70.2557 45.8666C68.4468 47.4995 65.9114 48.903 62.9029 50.0517C56.8759 52.3529 48.6484 53.7456 39.6331 53.7456C30.6179 53.7456 22.3904 52.3529 16.3633 50.0517C13.3548 48.903 10.8195 47.4995 9.01059 45.8666C7.20188 44.2338 6 42.2538 6 39.9999C6 37.746 7.20188 35.7659 9.01059 34.1332C10.8195 32.5003 13.3548 31.0968 16.3633 29.9481Z" fill="#61DAFB"/>
<path fill-rule="evenodd" clip-rule="evenodd" d="M28.5024 13.3294C26.6474 12.7293 25.2645 12.8366 24.2789 13.4057C23.2933 13.9747 22.5088 15.1187 22.1011 17.0252C21.6933 18.9314 21.7045 21.4375 22.1809 24.411C23.132 30.3472 25.8857 37.8309 30.2618 45.4105C34.6379 52.9902 39.7421 59.1168 44.4075 62.9086C46.7444 64.8079 48.9092 66.0706 50.7639 66.6706C52.6188 67.2707 54.0018 67.1634 54.9874 66.5943C55.973 66.0253 56.7574 64.8813 57.1652 62.9748C57.5729 61.0686 57.5617 58.5625 57.0854 55.589C56.1343 49.6527 53.3806 42.1691 49.0045 34.5895C44.6284 27.0098 39.5242 20.8832 34.8588 17.0914C32.5219 15.1921 30.3571 13.9294 28.5024 13.3294ZM36.7033 14.8219C41.7098 18.8908 47.0297 25.3197 51.5373 33.1271C56.0449 40.9346 58.9526 48.7562 59.9731 55.1264C60.4826 58.3061 60.5348 61.2036 60.0251 63.5865C59.5155 65.9693 58.4016 68.0002 56.4497 69.1271C54.4978 70.2541 52.182 70.2033 49.8637 69.4533C47.5451 68.7032 45.062 67.2092 42.5629 65.1781C37.5565 61.1092 32.2366 54.6803 27.729 46.8729C23.2214 39.0654 20.3137 31.2439 19.2931 24.8736C18.7837 21.6939 18.7314 18.7964 19.2411 16.4135C19.7508 14.0307 20.8646 11.9998 22.8166 10.8729C24.7685 9.7459 27.0842 9.79674 29.4026 10.5467C31.7212 11.2968 34.2043 12.7908 36.7033 14.8219Z" fill="#61DAFB"/>
<path fill-rule="evenodd" clip-rule="evenodd" d="M57.1651 17.0251C56.7573 15.1186 55.9729 13.9746 54.9873 13.4055C54.0017 12.8365 52.6187 12.7292 50.7638 13.3293C48.9091 13.9293 46.7443 15.192 44.4074 17.0913C39.742 20.8831 34.6378 27.0097 30.2617 34.5893C25.8856 42.169 23.1319 49.6526 22.1808 55.5889C21.7044 58.5624 21.6933 61.0685 22.101 62.9747C22.5088 64.8812 23.2932 66.0252 24.2788 66.5942C25.2644 67.1633 26.6474 67.2706 28.5023 66.6705C30.357 66.0705 32.5218 64.8078 34.8587 62.9085C39.5241 59.1167 44.6283 52.9901 49.0044 45.4104C53.3805 37.8308 56.1342 30.3471 57.0853 24.4109C57.5617 21.4374 57.5729 18.9313 57.1651 17.0251ZM59.9731 24.8735C58.9525 31.2437 56.0448 39.0653 51.5372 46.8727C47.0296 54.6802 41.7097 61.1091 36.7033 65.178C34.2042 67.2091 31.7211 68.7031 29.4025 69.4531C27.0841 70.2032 24.7684 70.254 22.8165 69.127C20.8645 68.0001 19.7507 65.9692 19.2411 63.5864C18.7314 61.2035 18.7836 58.306 19.293 55.1262C20.3136 48.756 23.2213 40.9344 27.7289 33.127C32.2365 25.3196 37.5564 18.8907 42.5629 14.8217C45.0619 12.7907 47.545 11.2967 49.8636 10.5466C52.182 9.79663 54.4977 9.74579 56.4496 10.8727C58.4016 11.9997 59.5154 14.0306 60.0251 16.4134C60.5348 18.7963 60.4825 21.6938 59.9731 24.8735Z" fill="#61DAFB"/>
</svg>
