<svg width="80" height="80" viewBox="0 0 80 80" fill="none" xmlns="http://www.w3.org/2000/svg">
<rect width="80" height="80" fill="white"/>
<path d="M53.8884 53.7374C56.5454 53.4623 58.5611 51.1718 58.4694 48.4229C58.378 45.6743 56.0872 43.4752 53.3386 43.4752H53.1555C50.3148 43.5668 48.116 45.949 48.2077 48.7894C48.2994 50.1638 48.849 51.3549 49.6736 52.1796C46.5585 58.3187 41.7941 62.8083 34.6475 66.5649C29.7915 69.1305 24.7523 70.0468 19.7132 69.4056C15.59 68.8557 12.3832 67.0234 10.3672 63.9994C7.43547 59.5098 7.16068 54.6534 9.63456 49.7974C11.3755 46.3155 14.1239 43.7499 15.8648 42.4672C15.4983 41.2761 14.9485 39.2603 14.6737 37.7945C1.38831 47.4152 2.76278 60.4261 6.79422 66.5649C9.81765 71.1465 15.9565 73.9868 22.7366 73.9868C24.5689 73.9868 26.4013 73.8035 28.2339 73.3456C39.9617 71.0548 48.8492 64.0911 53.8884 53.7374ZM70.0141 42.3757C63.0507 34.2209 52.789 29.7313 41.0611 29.7313H39.5953C38.7706 28.0821 37.0297 26.9824 35.1057 26.9824H34.9223C32.0822 27.0741 29.8834 29.4562 29.9748 32.2969C30.0665 35.0455 32.357 37.2446 35.1057 37.2446H35.2888C37.3045 37.1529 39.0454 35.8702 39.7784 34.1292H41.4276C48.3911 34.1292 54.9878 36.1449 60.9436 40.085C65.5246 43.1087 68.8231 47.0487 70.6554 51.8131C72.213 55.6614 72.1213 59.4181 70.472 62.6252C67.9067 67.4813 63.6005 70.1385 57.9198 70.1385C54.2549 70.1385 50.7733 69.0388 48.9406 68.2142C47.9329 69.1305 46.1003 70.5964 44.8175 71.513C48.7576 73.3453 52.789 74.3533 56.6371 74.3533C65.4329 74.3533 71.9382 69.497 74.412 64.6409C77.069 59.3264 76.8856 50.1638 70.0141 42.3757ZM23.4695 55.2947C23.5612 58.0436 25.8517 60.2424 28.6004 60.2424H28.7837C31.6241 60.151 33.8229 57.7686 33.7312 54.9282C33.6398 52.1793 31.349 49.9805 28.6004 49.9805H28.4173C28.2339 49.9805 27.9588 49.9805 27.776 50.0719C24.0194 43.8413 22.4618 37.0612 23.0117 29.731C23.3778 24.2334 25.2105 19.4688 28.4173 15.5288C31.0742 12.1386 36.2051 10.4893 39.687 10.3979C49.3988 10.2145 53.5216 22.3091 53.7967 27.1655C54.9878 27.4402 57.0035 28.0818 58.378 28.5399C57.2783 13.6967 48.116 6 39.3205 6C31.0742 6 23.4695 11.9557 20.4458 20.7518C16.2313 32.48 18.9799 43.7499 24.1108 52.6377C23.6529 53.279 23.3778 54.2867 23.4695 55.2947Z" fill="#764ABC"/>
</svg>
