<svg width="80" height="80" viewBox="0 0 80 80" fill="none" xmlns="http://www.w3.org/2000/svg">
<rect width="80" height="80" fill="none"/>
<path d="M68.845 4.00092C69.0209 3.98981 69.1877 4.07972 69.2751 4.2327C69.3625 4.38567 69.3553 4.57505 69.2564 4.7209L51.4626 28.8917C51.3322 29.0389 51.145 29.1232 50.9483 29.1232C50.7517 29.1232 50.5645 29.0389 50.4341 28.8917L44.1599 21.8976C44.0067 21.7385 43.7895 21.6576 43.5696 21.6776C43.3496 21.6976 43.1506 21.8164 43.0285 22.0005L39.2229 26.8346C39.1025 27.1068 39.1421 27.4233 39.3258 27.6575L50.6398 39.3829C50.7702 39.5301 50.9574 39.6143 51.154 39.6143C51.3507 39.6143 51.5379 39.5301 51.6683 39.3829L73.8849 14.3892C74.0161 14.2483 74.2193 14.2004 74.3996 14.268C74.5799 14.3356 74.7016 14.5053 74.7077 14.6978V75.4848C74.7162 75.6236 74.6648 75.7595 74.5664 75.8578C74.4681 75.9562 74.3323 76.0076 74.1935 75.9991H6.51518C6.37636 76.0076 6.24054 75.9562 6.14219 75.8578C6.04384 75.7595 5.9924 75.6236 6.00091 75.4848V4.5152C5.9924 4.37637 6.04384 4.24056 6.14219 4.1422C6.24054 4.04385 6.37636 3.99241 6.51518 4.00092H68.845ZM51.3598 45.0399C48.2977 44.986 45.3466 46.1858 43.1907 48.3611C41.0349 50.5364 39.8616 53.4981 39.9429 56.5596C39.9429 63.6566 45.0856 68.1822 51.7712 68.1822C54.866 68.2592 57.9008 67.3198 60.411 65.5079C60.6436 65.2966 60.6873 64.9472 60.5138 64.6851L58.6624 61.908C58.4543 61.6694 58.1001 61.6251 57.8396 61.8052C56.2304 62.9041 54.3365 63.5116 52.3883 63.5537C48.7884 63.5537 46.5256 61.2909 46.1142 58.6167C46.1216 58.5063 46.2095 58.4184 46.3199 58.411H61.8509C62.182 58.3886 62.4456 58.125 62.468 57.7938V57.1767C62.468 49.9769 57.9424 45.0399 51.3598 45.0399ZM36.0344 41.1314C32.9104 38.5778 28.9575 37.2602 24.9261 37.4286C17.932 37.4286 13.6121 41.5428 13.6121 46.4798C13.6121 57.691 30.686 54.0911 30.686 59.3367C30.686 60.9823 29.0403 62.628 25.5433 62.628C22.222 62.6554 19.0176 61.4031 16.5949 59.131C16.4503 58.9957 16.2544 58.9295 16.0573 58.9492C15.8603 58.9689 15.6814 59.0726 15.5664 59.2338L12.8922 62.9366C12.7186 63.1986 12.7623 63.5481 12.995 63.7594C15.7721 66.3308 19.6806 68.0793 25.1319 68.0793C33.1545 68.0793 37.063 63.9651 37.2687 58.6167C37.2687 47.5084 20.1948 50.6969 20.1948 45.9656C20.1948 44.217 21.7377 42.9828 24.4119 42.9828C27.3598 42.9424 30.2308 43.9236 32.5374 45.7599C32.673 45.871 32.8477 45.9227 33.0219 45.9033C33.1961 45.884 33.3552 45.7952 33.4631 45.657L36.1373 42.0571C36.2484 41.9215 36.3001 41.7468 36.2807 41.5726C36.2614 41.3984 36.1726 41.2393 36.0344 41.1314ZM51.4626 49.5655C54.2602 49.409 56.6752 51.5051 56.9139 54.2968C56.9064 54.4072 56.8186 54.495 56.7082 54.5025H46.217C46.1067 54.495 46.0188 54.4072 46.0113 54.2968C46.3552 51.5599 48.7046 49.5209 51.4626 49.5655Z" fill="#2CB134"/>
</svg>
