<svg width="80" height="80" viewBox="0 0 80 80" fill="none" xmlns="http://www.w3.org/2000/svg">
<rect width="80" height="80" fill="none"/>
<mask id="mask0_168_17684" style="mask-type:luminance" maskUnits="userSpaceOnUse" x="4" y="18" width="72" height="44">
<path d="M4 18H76V61.2H4V18Z" fill="white"/>
</mask>
<g mask="url(#mask0_168_17684)">
<path fill-rule="evenodd" clip-rule="evenodd" d="M40 18C30.4 18 24.4 22.8 22 32.4C25.6 27.6 29.8 25.8 34.6 27C37.3387 27.684 39.296 29.672 41.4627 31.8707C44.992 35.4533 49.0773 39.6 58 39.6C67.6 39.6 73.6 34.8 76 25.2C72.4 30 68.2 31.8 63.4 30.6C60.6613 29.916 58.704 27.928 56.5373 25.7293C53.008 22.1467 48.9227 18 40 18ZM22 39.6C12.4 39.6 6.4 44.4 4 54C7.6 49.2 11.8 47.4 16.6 48.6C19.3387 49.2853 21.296 51.272 23.4627 53.4707C26.992 57.0533 31.0773 61.2 40 61.2C49.6 61.2 55.6 56.4 58 46.8C54.4 51.6 50.2 53.4 45.4 52.2C42.6613 51.516 40.704 49.528 38.5373 47.3293C35.008 43.7467 30.9227 39.6 22 39.6Z" fill="#38BDF8"/>
</g>
</svg>
