<svg width="80" height="80" viewBox="0 0 80 80" fill="none" xmlns="http://www.w3.org/2000/svg">
<rect width="80" height="80" fill="none"/>
<path d="M68.9688 4H11.0312C7.148 4 4 7.148 4 11.0312V68.9688C4 72.852 7.148 76 11.0312 76H68.9688C72.852 76 76 72.852 76 68.9688V11.0312C76 7.148 72.852 4 68.9688 4Z" fill="#3178C6"/>
<path d="M68.9688 4H11.0312C7.148 4 4 7.148 4 11.0312V68.9688C4 72.852 7.148 76 11.0312 76H68.9688C72.852 76 76 72.852 76 68.9688V11.0312C76 7.148 72.852 4 68.9688 4Z" fill="#3178C6"/>
<path fill-rule="evenodd" clip-rule="evenodd" d="M48.5695 61.294V68.3338C49.714 68.9205 51.0675 69.3604 52.6301 69.6537C54.1927 69.9471 55.8396 70.0938 57.571 70.0938C59.2583 70.0938 60.8612 69.9325 62.3798 69.6097C63.8984 69.2871 65.23 68.7554 66.3744 68.0148C67.5188 67.2742 68.4248 66.3062 69.0924 65.1108C69.7599 63.9155 70.0938 62.438 70.0938 60.6781C70.0938 59.402 69.9031 58.2838 69.5215 57.3232C69.14 56.3626 68.5899 55.5083 67.8709 54.7603C67.152 54.0123 66.29 53.3412 65.2849 52.7472C64.2799 52.1532 63.1465 51.5923 61.8846 51.0644C60.9603 50.683 60.1313 50.3127 59.3977 49.9534C58.664 49.594 58.0405 49.2274 57.5269 48.8535C57.0134 48.4794 56.6172 48.0834 56.3385 47.6655C56.0598 47.2474 55.9203 46.7745 55.9203 46.2464C55.9203 45.7625 56.045 45.3262 56.2945 44.9375C56.544 44.5488 56.8961 44.2152 57.3509 43.9365C57.8058 43.6579 58.3632 43.4415 59.0235 43.2875C59.6838 43.1335 60.4173 43.0566 61.2244 43.0566C61.8112 43.0566 62.4311 43.1006 63.084 43.1885C63.7369 43.2766 64.3935 43.4123 65.0539 43.5955C65.7141 43.7789 66.3559 44.0099 66.9796 44.2885C67.6031 44.5672 68.179 44.8898 68.7072 45.2566V38.6787C67.6362 38.2681 66.466 37.9637 65.1969 37.7657C63.9278 37.5677 62.4715 37.4688 60.8283 37.4688C59.1555 37.4688 57.571 37.6485 56.0744 38.0078C54.5779 38.3671 53.2611 38.928 52.1238 39.6906C50.9867 40.4534 50.0882 41.425 49.4279 42.6056C48.7677 43.7862 48.4375 45.1978 48.4375 46.8404C48.4375 48.9377 49.0427 50.727 50.2532 52.2084C51.4636 53.6896 53.3013 54.9435 55.7663 55.9702C56.7347 56.3662 57.637 56.7548 58.4733 57.1361C59.3096 57.5175 60.0323 57.9135 60.6411 58.3241C61.25 58.7348 61.7305 59.1821 62.0828 59.6661C62.4349 60.15 62.611 60.7 62.611 61.3161C62.611 61.7707 62.5008 62.1923 62.2808 62.581C62.0607 62.9697 61.7268 63.3069 61.2794 63.5929C60.8319 63.879 60.2743 64.1026 59.6068 64.2639C58.9391 64.4253 58.1579 64.5059 57.2628 64.5059C55.7369 64.5059 54.2258 64.2383 52.7291 63.7029C51.2326 63.1677 49.846 62.3647 48.5695 61.294ZM36.7347 43.949H45.7656V38.1719H20.5938V43.949H29.5805V69.6719H36.7347V43.949Z" fill="white"/>
</svg>
