<svg width="48" height="48" viewBox="0 0 48 48" fill="none" xmlns="http://www.w3.org/2000/svg">
<g clip-path="url(#clip0_328_467)">
<circle cx="24" cy="24" r="24" fill="#038C7F"/>
<path d="M28.52 9.6084C31.3073 7.91878 32.8983 7.07397 33.2929 7.07397C33.4902 7.07397 33.7616 7.22197 34.1069 7.51796C34.4645 7.80162 34.8284 8.17161 35.1984 8.62793C35.5683 9.08425 35.8767 9.56524 36.1233 10.0709C36.3823 10.5642 36.5118 11.0205 36.5118 11.4399V23.224C36.5118 23.3104 36.222 23.4892 35.6423 23.7605C35.075 24.0318 34.3597 24.3463 33.4964 24.704C32.6331 25.0493 31.7513 25.3885 30.851 25.7215C29.9507 26.0421 29.1737 26.3073 28.52 26.5169V30.3463C28.52 31.2713 28.6187 31.9373 28.816 32.3443C29.0134 32.7513 29.4327 32.9548 30.074 32.9548V34.1202L22.3042 37.3946L21.6937 36.1737C22.2487 36.1737 22.779 35.8468 23.2847 35.1932C23.741 34.5765 23.9692 33.6146 23.9692 32.3073V12.6793C23.9692 11.1377 23.4512 10.2682 22.4152 10.0709V9.23841L26.2446 7.07397C26.7503 7.28364 27.2559 7.65363 27.7616 8.18394C28.2672 8.71426 28.52 9.18908 28.52 9.6084ZM30 10.7184C29.556 10.7184 29.0627 10.9034 28.52 11.2734V24.741C28.964 24.741 29.4512 24.6423 29.9815 24.445C30.5118 24.2477 30.9681 24.001 31.3505 23.705C31.7328 23.3967 31.9239 23.0945 31.9239 22.7985V13.5118C31.9239 11.6495 31.2826 10.7184 30 10.7184Z" fill="white"/>
<path d="M15.6444 31.9003V14.4183C15.6444 13.4193 14.5283 12.9198 12.296 12.9198V11.8469C13.9486 10.9836 15.5087 10.1511 16.9764 9.34943C18.444 8.53546 19.8191 7.75231 21.1017 7L21.6937 8.22097C21.6444 8.24563 21.5827 8.28263 21.5087 8.33196C21.4471 8.38129 21.3731 8.43679 21.2867 8.49846C21.0278 8.69579 20.7749 9.17061 20.5283 9.92292C20.2939 10.6752 20.1768 11.4707 20.1768 12.3094V32.1593C20.1768 34.1326 20.0658 35.9702 19.8438 37.6721C19.7328 38.5601 19.5786 39.4111 19.3813 40.2251C19.1963 41.0391 18.9866 41.705 18.7523 42.223C18.518 42.741 18.2652 43 17.9938 43C17.5745 43 17.0627 42.9075 16.4584 42.7225C15.8541 42.5498 15.2436 42.3279 14.6269 42.0565C14.0226 41.7852 13.4861 41.5262 13.0175 41.2795L12 40.7246V39.5776H13.295C14.1706 39.5776 14.7811 38.9979 15.1264 37.8386C15.4717 36.6917 15.6444 34.7122 15.6444 31.9003Z" fill="white"/>
</g>
<defs>
<clipPath id="clip0_328_467">
<rect width="48" height="48" fill="white"/>
</clipPath>
</defs>
</svg>
